<?xml version="1.0" encoding="UTF-8" standalone="no"?>
<svg
   xmlns:dc="http://purl.org/dc/elements/1.1/"
   xmlns:cc="http://creativecommons.org/ns#"
   xmlns:rdf="http://www.w3.org/1999/02/22-rdf-syntax-ns#"
   xmlns:svg="http://www.w3.org/2000/svg"
   xmlns="http://www.w3.org/2000/svg"
   width="32"
   height="32"
   viewBox="0 0 32 32"
   class="bi bi-tools"
   fill="currentColor"
   version="1.1"
   id="svg6">
  <metadata
     id="metadata12">
    <rdf:RDF>
      <cc:Work
         rdf:about="">
        <dc:format>image/svg+xml</dc:format>
        <dc:type
           rdf:resource="http://purl.org/dc/dcmitype/StillImage" />
        <dc:title></dc:title>
      </cc:Work>
    </rdf:RDF>
  </metadata>
  <defs
     id="defs10" />
  <path
     fill-rule="evenodd"
     d="M 3.8865916,6.0187007 5.3783092,4.5269832 9.9742911,7.8087618 a 1.4917176,1.4917176 0 0 1 0.6250299,1.2157498 v 0.1044202 a 1.4917176,1.4917176 0 0 0 0.437073,1.0561362 l 8.513233,8.513232 1.363429,-0.454974 a 1.4917176,1.4917176 0 0 1 1.526027,0.360995 l 5.006205,5.006205 a 1.4917176,1.4917176 0 0 1 0,2.109288 l -2.365864,2.365864 a 1.4917176,1.4917176 0 0 1 -2.109289,0 l -5.006204,-5.006204 a 1.4917176,1.4917176 0 0 1 -0.360996,-1.526027 l 0.454974,-1.36343 -8.5132326,-8.513232 A 1.4917176,1.4917176 0 0 0 8.490032,11.239712 H 8.3841201 A 1.4917176,1.4917176 0 0 1 7.169862,10.614682 Z M 20.823553,20.407808 a 0.74680096,0.74680096 0 0 0 -1.056136,1.056136 l 4.475153,4.475153 a 0.74680096,0.74680096 0 0 0 1.056136,-1.056136 z"
     id="path2"
     style="stroke-width:1.49172;fill:#666666" />
  <path
     fill-rule="evenodd"
     d="m 27.601918,7.8430713 a 4.4796279,4.4796279 0 0 1 -5.488029,5.4805697 l -9.458982,9.32771 A 4.4751527,4.4751527 0 1 1 9.631196,19.62764 l 9.326219,-9.458981 a 4.4751527,4.4751527 0 0 1 5.482062,-5.4925041 l -3.195259,3.195259 0.542985,2.6224391 2.620948,0.542985 z M 7.6576536,21.296872 8.363236,20.935876 l 0.702599,0.360996 0.7891191,0.03878 0.4281229,0.663815 0.663814,0.428123 0.03879,0.789118 0.359504,0.702599 -0.360996,0.702599 -0.03879,0.789119 -0.663814,0.428123 -0.4281229,0.663814 -0.7891188,0.03879 -0.702599,0.360995 -0.702599,-0.360995 -0.7891186,-0.03879 -0.4281229,-0.663814 -0.6638143,-0.428123 -0.038785,-0.789119 -0.3609956,-0.702599 0.3609956,-0.702599 0.038785,-0.789118 0.6638143,-0.428123 0.4281229,-0.663815 0.7891186,-0.03878 z"
     id="path4"
     style="stroke-width:1.49172;fill:#666666" />
</svg>
